<?xml version="1.0" encoding="UTF-8" standalone="no"?><!DOCTYPE svg PUBLIC "-//W3C//DTD SVG 1.1//EN" "http://www.w3.org/Graphics/SVG/1.1/DTD/svg11.dtd"><svg width="100%" height="100%" viewBox="0 0 123 50" version="1.1" xmlns="http://www.w3.org/2000/svg" xmlns:xlink="http://www.w3.org/1999/xlink" xml:space="preserve" xmlns:serif="http://www.serif.com/" style="fill-rule:evenodd;clip-rule:evenodd;stroke-linejoin:round;stroke-miterlimit:1.41421;"><rect id="bytron_03" x="0" y="0" width="122.88" height="49.075" style="fill:none;"/><path d="M12.038,0.11l-2.738,13.166l0.094,0c1.7,-2.029 4.296,-3.255 7.129,-3.255c4.815,0 6.986,3.916 6.986,8.021c0,7.504 -4.909,16.092 -15.295,16.092c-5.476,0 -8.214,-2.36 -8.214,-6.465c0,-1.416 0.236,-2.831 0.52,-4.2l4.673,-23.359l6.845,0Zm-4.768,23.784c-0.094,0.755 -0.283,1.558 -0.236,2.549c0.048,1.65 1.039,2.547 2.596,2.547c3.919,0 6.751,-5.474 6.751,-9.532c0,-2.218 -0.945,-3.964 -3.021,-3.964c-2.455,0 -4.863,2.502 -5.665,6.512l-0.425,1.888Z" style="fill:#fff;fill-rule:nonzero;"/><path d="M30.767,10.539l1.416,10.052c0.331,2.359 0.567,4.01 0.755,5.474l0.095,0c0.519,-1.369 1.039,-2.879 2.03,-5.38l4.201,-10.146l7.176,0l-8.262,16.564c-3.068,6.134 -5.806,10.334 -8.875,13.213c-2.691,2.548 -5.9,3.681 -7.411,3.917l-1.51,-5.804c1.085,-0.331 2.595,-0.897 3.918,-1.841c1.557,-1.085 2.879,-2.454 3.729,-4.011c0.236,-0.33 0.236,-0.613 0.141,-1.132l-4.578,-20.906l7.175,0Z" style="fill:#fff;fill-rule:nonzero;"/><path d="M58.623,4.074l-1.228,6.465l4.91,0l-0.992,5.144l-4.909,0l-1.557,7.833c-0.19,0.944 -0.379,2.124 -0.379,2.927c0,1.131 0.472,1.934 1.936,1.934c0.614,0 1.274,0 1.888,-0.094l-0.803,5.332c-0.849,0.331 -2.549,0.519 -4.012,0.519c-4.059,0 -5.995,-2.076 -5.995,-4.954c0,-1.275 0.142,-2.549 0.472,-4.295l1.794,-9.202l-2.928,0l0.945,-5.144l2.974,0l0.944,-4.86l6.94,-1.605Z" style="fill:#fff;fill-rule:nonzero;"/><path d="M60.005,33.615l2.597,-13.732c0.661,-3.492 0.944,-7.362 1.179,-9.344l5.902,0c-0.142,1.557 -0.284,3.115 -0.425,4.719l0.141,0c1.605,-3.067 4.202,-5.238 7.364,-5.238c0.426,0 0.85,0 1.275,0.047l-1.321,6.607c-0.331,-0.048 -0.709,-0.048 -1.086,-0.048c-4.343,0 -6.373,3.871 -7.223,8.401l-1.605,8.588l-6.798,0Z" style="fill:#fff;fill-rule:nonzero;"/><path d="M99.963,19.506c0,8.447 -5.76,14.628 -13.785,14.628c-5.854,0 -9.772,-3.822 -9.772,-9.532c0,-8.022 5.571,-14.582 13.785,-14.582c6.184,0 9.772,4.247 9.772,9.486m-16.523,4.954c0,2.69 1.322,4.483 3.683,4.483c3.729,0 5.806,-5.427 5.806,-9.391c0,-2.123 -0.897,-4.388 -3.634,-4.388c-3.919,0 -5.902,5.71 -5.855,9.296" style="fill:#fff;fill-rule:nonzero;"/><path d="M99.04,33.615l2.927,-15.572c0.567,-2.927 0.944,-5.475 1.228,-7.504l6.042,0l-0.473,3.823l0.095,0c2.172,-3.02 5.051,-4.342 8.119,-4.342c3.778,0 5.902,2.313 5.902,6.276c0,1.038 -0.19,2.785 -0.378,3.917l-2.55,13.402l-6.797,0l2.407,-12.788c0.142,-0.803 0.236,-1.746 0.236,-2.596c0,-1.605 -0.566,-2.737 -2.265,-2.737c-2.219,0 -4.816,2.785 -5.759,7.881l-1.936,10.24l-6.798,0Z" style="fill:#fff;fill-rule:nonzero;"/><path d="M43.407,46.157c-0.024,-0.654 0.061,-1.694 0.254,-2.711l0.593,-3.05c-0.399,-0.133 -1.016,-0.23 -1.573,-0.23c-2.553,0 -4.054,2.154 -4.054,4.188c0,1.113 0.653,1.936 1.682,1.936c0.835,0 1.634,-0.436 2.275,-1.646l0.024,0c-0.072,0.605 -0.133,1.162 -0.133,1.513l0.932,0Zm-0.617,-3.34c-0.29,1.561 -1.283,2.65 -2.118,2.65c-0.774,0 -1.004,-0.641 -1.004,-1.295c0.012,-1.622 1.246,-3.207 2.759,-3.207c0.339,0 0.557,0.048 0.702,0.085l-0.339,1.767Z" style="fill:#fff;fill-rule:nonzero;"/><path d="M45.186,40.299l1.017,5.858l0.992,0l3.256,-5.858l-1.102,0l-1.791,3.413c-0.339,0.666 -0.496,1.053 -0.617,1.368l-0.036,0c-0.024,-0.327 -0.097,-0.775 -0.182,-1.44l-0.508,-3.341l-1.029,0Z" style="fill:#fff;fill-rule:nonzero;"/><path d="M51.419,46.157l1.125,-5.858l-1.004,0l-1.126,5.858l1.005,0Zm0.883,-6.862c0.388,0 0.666,-0.278 0.678,-0.678c0,-0.363 -0.23,-0.629 -0.593,-0.629c-0.363,0 -0.666,0.29 -0.666,0.678c0,0.363 0.23,0.629 0.581,0.629Z" style="fill:#fff;fill-rule:nonzero;"/><path d="M58.002,46.157c-0.024,-0.654 0.061,-1.694 0.255,-2.711l0.593,-3.05c-0.4,-0.133 -1.017,-0.23 -1.574,-0.23c-2.553,0 -4.054,2.154 -4.054,4.188c0,1.113 0.654,1.936 1.682,1.936c0.835,0 1.634,-0.436 2.275,-1.646l0.025,0c-0.073,0.605 -0.133,1.162 -0.133,1.513l0.931,0Zm-0.617,-3.34c-0.29,1.561 -1.283,2.65 -2.118,2.65c-0.774,0 -1.004,-0.641 -1.004,-1.295c0.012,-1.622 1.246,-3.207 2.759,-3.207c0.339,0 0.557,0.048 0.702,0.085l-0.339,1.767Z" style="fill:#fff;fill-rule:nonzero;"/><path d="M61.088,38.98l-0.254,1.319l-0.835,0l-0.157,0.787l0.847,0l-0.581,2.965c-0.085,0.424 -0.121,0.763 -0.121,1.101c0,0.593 0.339,1.138 1.235,1.138c0.29,0 0.593,-0.036 0.774,-0.109l0.049,-0.787c-0.134,0.025 -0.303,0.037 -0.472,0.037c-0.388,0 -0.557,-0.206 -0.557,-0.557c0,-0.315 0.048,-0.617 0.109,-0.944l0.544,-2.844l1.404,0l0.158,-0.787l-1.404,0l0.302,-1.573l-1.041,0.254Z" style="fill:#fff;fill-rule:nonzero;"/><path d="M64.296,46.157l1.125,-5.858l-1.004,0l-1.126,5.858l1.005,0Zm0.883,-6.862c0.387,0 0.666,-0.278 0.678,-0.678c0,-0.363 -0.23,-0.629 -0.593,-0.629c-0.363,0 -0.666,0.29 -0.666,0.678c0,0.363 0.23,0.629 0.581,0.629Z" style="fill:#fff;fill-rule:nonzero;"/><path d="M69.391,40.166c-1.901,0 -3.244,1.791 -3.244,3.716c0,1.319 0.823,2.408 2.287,2.408c1.961,0 3.244,-1.876 3.244,-3.679c0,-1.247 -0.702,-2.445 -2.287,-2.445Zm-0.109,0.799c1.052,0 1.367,0.956 1.367,1.634c0,1.367 -0.895,2.892 -2.081,2.892c-0.86,0 -1.38,-0.69 -1.38,-1.646c-0.012,-1.343 0.835,-2.88 2.094,-2.88Z" style="fill:#fff;fill-rule:nonzero;"/><path d="M73.384,46.157l0.533,-2.844c0.266,-1.452 1.283,-2.312 1.997,-2.312c0.689,0 0.919,0.436 0.919,1.029c0,0.242 -0.036,0.52 -0.084,0.75l-0.642,3.377l1.005,0l0.653,-3.413c0.061,-0.315 0.109,-0.69 0.109,-0.944c0,-1.234 -0.787,-1.634 -1.488,-1.634c-0.86,0 -1.646,0.46 -2.167,1.283l-0.024,0l0.145,-1.15l-0.895,0c-0.073,0.485 -0.145,1.053 -0.279,1.707l-0.786,4.151l1.004,0Z" style="fill:#fff;fill-rule:nonzero;"/><path d="M80.815,45.879c0.266,0.205 0.823,0.399 1.452,0.399c1.235,0 2.239,-0.69 2.239,-1.924c0,-0.654 -0.448,-1.162 -1.101,-1.537c-0.521,-0.291 -0.799,-0.557 -0.799,-0.981c0,-0.508 0.436,-0.883 1.041,-0.883c0.436,0 0.811,0.145 1.016,0.266l0.279,-0.762c-0.218,-0.145 -0.69,-0.291 -1.223,-0.291c-1.234,0 -2.117,0.787 -2.117,1.816c0,0.593 0.375,1.113 1.052,1.488c0.606,0.339 0.811,0.617 0.811,1.077c0,0.521 -0.435,0.956 -1.113,0.956c-0.472,0 -0.98,-0.193 -1.259,-0.363l-0.278,0.739Z" style="fill:#fff;fill-rule:nonzero;"/><path d="M85.801,40.299l1.174,5.507c0.012,0.097 0.012,0.169 -0.036,0.266c-0.315,0.569 -0.739,1.041 -1.126,1.343c-0.399,0.315 -0.823,0.472 -1.077,0.569l0.242,0.86c0.339,-0.073 1.053,-0.351 1.706,-1.017c0.799,-0.775 1.392,-1.803 2.022,-3.074l2.19,-4.454l-1.065,0l-1.489,3.268c-0.302,0.641 -0.472,1.053 -0.629,1.428l-0.024,0c-0.061,-0.436 -0.133,-0.871 -0.266,-1.537l-0.581,-3.159l-1.041,0Z" style="fill:#fff;fill-rule:nonzero;"/><path d="M90.666,45.879c0.266,0.205 0.823,0.399 1.452,0.399c1.235,0 2.239,-0.69 2.239,-1.924c0,-0.654 -0.448,-1.162 -1.101,-1.537c-0.52,-0.291 -0.799,-0.557 -0.799,-0.981c0,-0.508 0.436,-0.883 1.041,-0.883c0.436,0 0.811,0.145 1.017,0.266l0.278,-0.762c-0.218,-0.145 -0.69,-0.291 -1.222,-0.291c-1.235,0 -2.118,0.787 -2.118,1.816c0,0.593 0.375,1.113 1.053,1.488c0.605,0.339 0.81,0.617 0.81,1.077c0,0.521 -0.435,0.956 -1.113,0.956c-0.472,0 -0.98,-0.193 -1.259,-0.363l-0.278,0.739Z" style="fill:#fff;fill-rule:nonzero;"/><path d="M96.996,38.98l-0.255,1.319l-0.835,0l-0.157,0.787l0.847,0l-0.581,2.965c-0.084,0.424 -0.121,0.763 -0.121,1.101c0,0.593 0.339,1.138 1.235,1.138c0.29,0 0.593,-0.036 0.774,-0.109l0.049,-0.787c-0.134,0.025 -0.303,0.037 -0.472,0.037c-0.388,0 -0.557,-0.206 -0.557,-0.557c0,-0.315 0.048,-0.617 0.109,-0.944l0.544,-2.844l1.404,0l0.158,-0.787l-1.404,0l0.302,-1.573l-1.04,0.254Z" style="fill:#fff;fill-rule:nonzero;"/><path d="M103.228,45.068c-0.363,0.193 -0.883,0.411 -1.573,0.411c-0.605,0 -1.077,-0.266 -1.307,-0.786c-0.133,-0.315 -0.17,-0.86 -0.121,-1.114c2.166,0.036 3.897,-0.375 3.897,-1.912c0,-0.835 -0.605,-1.501 -1.719,-1.501c-1.888,0 -3.195,1.997 -3.195,3.764c0,1.295 0.678,2.348 2.227,2.348c0.787,0 1.501,-0.206 1.936,-0.46l-0.145,-0.75Zm-0.072,-3.365c0,0.908 -1.235,1.114 -2.808,1.102c0.242,-0.92 0.956,-1.852 1.912,-1.852c0.532,0 0.896,0.266 0.896,0.75Z" style="fill:#fff;fill-rule:nonzero;"/><path d="M105.612,46.157l0.545,-2.941c0.23,-1.246 1.137,-2.215 1.876,-2.215c0.738,0 0.871,0.509 0.871,1.005c0,0.23 -0.024,0.46 -0.073,0.714l-0.653,3.437l0.968,0l0.569,-3.001c0.242,-1.307 1.101,-2.155 1.827,-2.155c0.654,0 0.884,0.4 0.884,1.017c0,0.242 -0.037,0.545 -0.085,0.762l-0.629,3.377l0.98,0l0.654,-3.461c0.06,-0.327 0.096,-0.714 0.096,-0.993c0,-1.101 -0.738,-1.537 -1.416,-1.537c-0.883,0.012 -1.633,0.46 -2.154,1.307c-0.048,-0.738 -0.472,-1.307 -1.367,-1.307c-0.775,0 -1.513,0.424 -2.058,1.235l-0.036,0l0.157,-1.102l-0.883,0c-0.061,0.485 -0.145,1.053 -0.266,1.707l-0.787,4.151l0.98,0Z" style="fill:#fff;fill-rule:nonzero;"/><path d="M114.181,45.879c0.266,0.205 0.823,0.399 1.452,0.399c1.234,0 2.239,-0.69 2.239,-1.924c0,-0.654 -0.448,-1.162 -1.102,-1.537c-0.52,-0.291 -0.798,-0.557 -0.798,-0.981c0,-0.508 0.435,-0.883 1.04,-0.883c0.436,0 0.811,0.145 1.017,0.266l0.278,-0.762c-0.217,-0.145 -0.689,-0.291 -1.222,-0.291c-1.234,0 -2.118,0.787 -2.118,1.816c0,0.593 0.375,1.113 1.053,1.488c0.605,0.339 0.811,0.617 0.811,1.077c0,0.521 -0.436,0.956 -1.113,0.956c-0.472,0 -0.981,-0.193 -1.259,-0.363l-0.278,0.739Z" style="fill:#fff;fill-rule:nonzero;"/></svg>